# xmcd
#
# Track frame offsets:
#	150
#	6575
#	13400
#	19625
#	26638
#	30950
#	40067
#	46499
#	51974
#	58874
#	67724
#	76649
#	82199
#	88724
#	92999
#	98324
#	105599
#	111974
#	117449
#	122774
#	131849
#	140399
#	145799
#	154199
#	162149
#	166574
#	172349
#	182999
#	190724
#	195749
#	201749
#	208874
#	215549
#	225749
#	230774
#	237374
#	243599
#	251324
#	261224
#	269024
#
# Disc length: 3679 seconds
#
# Revision: 0
# Processed by: cddbd v1.5.1PL0 Copyright (c) Steve Scherf et al.
# Submitted via: audiograbber 1.81.02
#
DISCID=3f0e5d28
DTITLE=Various Artist - The "How To" Songbook Vol. 4
DYEAR=2005
DGENRE=Christian Rock
TTITLE0=All Creatures Of Our God And Kind
TTITLE1=All Over The World
TTITLE2=As I Lift You Up
TTITLE3=Be Near
TTITLE4=Come Tou Fount
TTITLE5=Devotion
TTITLE6=Forever
TTITLE7=God Of Nations
TTITLE8=Healing Rain
TTITLE9=Here Is Our King
TTITLE10=I Believe In You
TTITLE11=I Will Never Be The Same (Because Of Jesus)
TTITLE12=If We Are The Body
TTITLE13=In The Cross Alone I Glory
TTITLE14=Indescribable
TTITLE15=Jesus You Are Worthy
TTITLE16=Jesus, Lord Of Heaven
TTITLE17=King Of Glory
TTITLE18=Maker Of All Things
TTITLE19=Marvelus Light
TTITLE20=Much Of You
TTITLE21=My Redeeming King
TTITLE22=Never Be The Same
TTITLE23=Nothing But The Blood
TTITLE24=O Worship The King
TTITLE25=Prepare The Way
TTITLE26=Rain Down
TTITLE27=Spirit
TTITLE28=Spirit Of The Living God
TTITLE29=Strong Tower
TTITLE30=Stronger Than The Storm
TTITLE31=The Beauty Of Your Peace
TTITLE32=The Only One
TTITLE33=The Power Of The Cross
TTITLE34=Who Am I
TTITLE35=Whole World In His Hands
TTITLE36=Worth It All
TTITLE37=Yearn
TTITLE38=Your Love Falls Down
TTITLE39=Your Love Goes On Forever
EXTD=www.gerth.de - ArtNo. 104135
EXTT0=
EXTT1=
EXTT2=
EXTT3=
EXTT4=
EXTT5=
EXTT6=
EXTT7=
EXTT8=
EXTT9=
EXTT10=
EXTT11=
EXTT12=
EXTT13=
EXTT14=
EXTT15=
EXTT16=
EXTT17=
EXTT18=
EXTT19=
EXTT20=
EXTT21=
EXTT22=
EXTT23=
EXTT24=
EXTT25=
EXTT26=
EXTT27=
EXTT28=
EXTT29=
EXTT30=
EXTT31=
EXTT32=
EXTT33=
EXTT34=
EXTT35=
EXTT36=
EXTT37=
EXTT38=
EXTT39=
PLAYORDER=
